<?xml version="1.0" encoding="utf-8"?>
<!-- Generator: Adobe Illustrator 22.0.1, SVG Export Plug-In . SVG Version: 6.00 Build 0)  -->
<svg version="1.1" id="_x2B_Character" xmlns="http://www.w3.org/2000/svg" xmlns:xlink="http://www.w3.org/1999/xlink" x="0px"
	 y="0px" viewBox="0 0 800 1050" style="enable-background:new 0 0 800 1050;" xml:space="preserve">
<style type="text/css">
	.st0{fill:#C199C7;}
	.st1{fill:#1A0D25;}
	.st2{opacity:0.99;fill:#2D3651;}
	.st3{opacity:0.99;fill:#270D34;}
	.st4{opacity:0.99;fill:#D796FD;}
	.st5{opacity:0.99;fill:#3785D2;}
	.st6{fill:none;stroke:#000000;stroke-linecap:round;stroke-miterlimit:10;}
	.st7{fill:#F2F2F2;stroke:#000000;stroke-width:0.5;stroke-linecap:round;stroke-miterlimit:10;}
	.st8{fill:#29ABE2;stroke:#000000;stroke-width:0.25;stroke-miterlimit:10;}
	.st9{fill:#2A77B5;}
	.st10{opacity:0.99;fill-rule:evenodd;clip-rule:evenodd;fill:#1C5A84;}
	.st11{opacity:0.99;fill-rule:evenodd;clip-rule:evenodd;fill:#2A77B5;}
	.st12{opacity:0.99;fill-rule:evenodd;clip-rule:evenodd;fill:#270D34;}
	.st13{display:none;}
	.st14{display:inline;}
	.st15{display:inline;fill:#F2F2F2;}
	.st16{display:inline;fill:#E60000;}
	.st17{display:none;opacity:0.99;}
	.st18{display:none;opacity:0.99;fill:none;stroke:#000000;stroke-width:3;stroke-linecap:round;stroke-miterlimit:10;}
	.st19{opacity:0.99;}
	.st20{fill:#1C5A84;}
	.st21{opacity:0.99;fill:#F2F2F2;}
	.st22{display:none;opacity:0.99;fill:#1C5A84;}
	.st23{fill:#163E59;}
</style>
<rect id="instructional_bg_guide_2_" y="1000" class="st0" width="800" height="50"/>
<path id="instructional_text_guide_1_" class="st1" d="M25.3,1016.3h3.8c0.1,0,0.2,0,0.2,0.2c0.7,2.4,2.8,9.6,3.3,11.8h0
	c0.5-2,2.9-9.3,3.6-11.8c0-0.1,0.1-0.2,0.2-0.2h3.7c0.1,0,0.2,0,0.2,0.1l0.6,15.4c0,0.1,0,0.2-0.2,0.2h-2.7c-0.1,0-0.2,0-0.2-0.2
	c-0.1-5.1-0.2-12-0.1-13.5h0c-0.6,2.3-3,10.3-4,13.5c0,0.2-0.1,0.2-0.2,0.2h-2.4c-0.2,0-0.2,0-0.2-0.2c-1-3.6-3-10.6-3.6-13.6h0
	c0,2.4-0.2,8.5-0.5,13.6c0,0.1,0,0.2-0.2,0.2h-2.4c-0.1,0-0.2,0-0.2-0.2l0.9-15.4C25.2,1016.3,25.2,1016.3,25.3,1016.3z M53,1029.7
	c0,0.5,0,1,0,1.5c0,0,0,0.1,0,0.1c-2,0.8-3.4,1.1-5,1.1c-2.6,0-4.7-1.2-4.7-3.9c0-2.5,2.3-3.8,5.4-3.8c0.7,0,1.3,0,1.5,0v-0.3
	c0-0.6-0.3-1.8-2.4-1.8c-1.2,0-2.3,0.2-3.1,0.7c-0.1,0-0.2,0-0.2-0.1v-2.1c0-0.1,0-0.2,0.1-0.2c1-0.5,2.4-0.7,3.6-0.7
	c3.3,0,4.8,2.1,4.8,4.8V1029.7z M50.2,1026.8c-0.4,0-0.8-0.1-1.3-0.1c-1.9,0-2.7,0.6-2.7,1.7c0,0.9,0.6,1.7,2.4,1.7
	c0.6,0,1.2-0.1,1.7-0.3V1026.8z M66.2,1020.3c0.2,0,0.2,0.1,0.1,0.2c-0.7,0.8-3.8,4.1-4.8,5.1c0,0,0,0,0,0.1
	c1.5,1.7,3.8,4.4,5.4,6.2c0.1,0.1,0,0.2-0.1,0.2h-3.3c-0.2,0-0.2,0-0.3-0.2c-0.9-1-3.2-3.9-4.4-5.3v5.3c0,0.2,0,0.2-0.2,0.2h-2.5
	c-0.2,0-0.2,0-0.2-0.2v-16.7c0-0.1,0-0.2,0.2-0.2h2.5c0.1,0,0.2,0,0.2,0.2v10.2c1.3-1.4,3.8-4.3,4.3-4.9c0.1-0.1,0.2-0.1,0.3-0.1
	H66.2z M70.2,1026.8c0.1,1.7,1.2,3,3.6,3c1.1,0,2.1-0.2,3-0.6c0.1,0,0.1,0,0.1,0.1v2c0,0.1,0,0.2-0.1,0.3c-0.9,0.4-2,0.7-3.6,0.7
	c-4.4,0-5.9-3.1-5.9-6c0-3.3,2-6.3,5.6-6.3c3.6,0,4.9,2.8,4.9,5.1c0,0.7,0,1.2-0.1,1.5c0,0.1-0.1,0.1-0.2,0.2
	c-0.3,0.1-1.3,0.1-2.5,0.1H70.2z M73.7,1024.8c0.9,0,1.2,0,1.3,0c0-0.1,0-0.2,0-0.2c0-0.7-0.5-2.2-2.3-2.2c-1.7,0-2.4,1.3-2.6,2.4
	H73.7z M94.4,1029.7c0,0.5,0,1,0,1.5c0,0,0,0.1,0,0.1c-2,0.8-3.4,1.1-5,1.1c-2.6,0-4.7-1.2-4.7-3.9c0-2.5,2.3-3.8,5.4-3.8
	c0.7,0,1.3,0,1.5,0v-0.3c0-0.6-0.3-1.8-2.4-1.8c-1.2,0-2.3,0.2-3.1,0.7c-0.1,0-0.2,0-0.2-0.1v-2.1c0-0.1,0-0.2,0.1-0.2
	c1-0.5,2.4-0.7,3.6-0.7c3.3,0,4.8,2.1,4.8,4.8V1029.7z M91.6,1026.8c-0.4,0-0.8-0.1-1.3-0.1c-1.9,0-2.7,0.6-2.7,1.7
	c0,0.9,0.6,1.7,2.4,1.7c0.6,0,1.2-0.1,1.7-0.3V1026.8z M97.4,1023c0-0.8,0-2.1-0.1-2.6c0-0.1,0-0.2,0.2-0.2h2.2c0.2,0,0.2,0,0.3,0.2
	c0.1,0.2,0.1,0.5,0.2,0.9c1-0.9,2.2-1.3,3.5-1.3c1.8,0,4,0.9,4,4.8v7.1c0,0.2-0.1,0.2-0.2,0.2h-2.5c-0.1,0-0.2-0.1-0.2-0.2v-6.8
	c0-1.6-0.7-2.5-2.1-2.5c-1,0-1.8,0.4-2.3,1v8.4c0,0.1-0.1,0.2-0.2,0.2h-2.5c-0.1,0-0.2-0.1-0.2-0.2V1023z M111.9,1020.3
	c0.1,0,0.2,0,0.2,0.1c1.6,4.5,2.4,7.1,2.7,8.3c0.8-2.4,1.6-4.9,2.7-8.3c0-0.1,0.1-0.1,0.3-0.1h2.5c0.1,0,0.2,0.1,0.1,0.2
	c-1.7,5.3-4.3,11.8-6.3,16.2c0,0.1-0.1,0.2-0.3,0.2l-2.6,0.2c-0.1,0-0.2,0-0.1-0.2c0.7-1.4,1.5-3.1,2.3-5c0-0.1,0.1-0.2,0-0.4
	c-0.6-1.6-3-7.3-4.4-11.1c0-0.1,0-0.2,0.1-0.2H111.9z M135.6,1031.8c0,0.1,0,0.2-0.1,0.2c-0.8,0.3-1.7,0.4-2.7,0.4
	c-3.9,0-6.2-2.7-6.2-6.1c0-3.6,2.6-6.2,6.6-6.2c1.2,0,1.8,0.1,2.3,0.3c0.1,0,0.1,0.1,0.1,0.3l0,2.1c0,0.2-0.1,0.2-0.2,0.1
	c-0.5-0.2-1.1-0.3-2.1-0.3c-2.2,0-3.7,1.3-3.7,3.6c0,2.6,1.9,3.6,3.7,3.6c0.9,0,1.6-0.1,2.1-0.2c0.1,0,0.2,0,0.2,0.1V1031.8z
	 M140.8,1031.9c0,0.1,0,0.2-0.2,0.2H138c-0.1,0-0.2-0.1-0.2-0.2v-16.7c0-0.1,0-0.2,0.2-0.2h2.5c0.1,0,0.2,0,0.2,0.2v6
	c0.9-0.7,1.9-1.1,3.3-1.1c1.8,0,4,0.9,4,4.8v7.1c0,0.2-0.1,0.2-0.2,0.2h-2.5c-0.1,0-0.2-0.1-0.2-0.2v-6.8c0-1.6-0.7-2.5-2.1-2.5
	c-0.9,0-1.7,0.3-2.3,0.8V1031.9z M160,1029.7c0,0.5,0,1,0,1.5c0,0,0,0.1,0,0.1c-2,0.8-3.4,1.1-5,1.1c-2.6,0-4.7-1.2-4.7-3.9
	c0-2.5,2.3-3.8,5.4-3.8c0.7,0,1.3,0,1.5,0v-0.3c0-0.6-0.3-1.8-2.4-1.8c-1.2,0-2.3,0.2-3.1,0.7c-0.1,0-0.2,0-0.2-0.1v-2.1
	c0-0.1,0-0.2,0.1-0.2c1-0.5,2.4-0.7,3.6-0.7c3.3,0,4.8,2.1,4.8,4.8V1029.7z M157.2,1026.8c-0.4,0-0.8-0.1-1.3-0.1
	c-1.9,0-2.7,0.6-2.7,1.7c0,0.9,0.6,1.7,2.4,1.7c0.6,0,1.2-0.1,1.7-0.3V1026.8z M163,1023c0-0.8,0-2.1-0.1-2.6c0-0.1,0-0.2,0.2-0.2
	h2.2c0.2,0,0.2,0,0.3,0.2c0.1,0.2,0.1,0.5,0.2,0.9c1-0.9,2.2-1.3,3.5-1.3c1.8,0,4,0.9,4,4.8v7.1c0,0.2-0.1,0.2-0.2,0.2h-2.5
	c-0.1,0-0.2-0.1-0.2-0.2v-6.8c0-1.6-0.7-2.5-2.1-2.5c-1,0-1.8,0.4-2.3,1v8.4c0,0.1-0.1,0.2-0.2,0.2h-2.5c-0.1,0-0.2-0.1-0.2-0.2
	V1023z M181.9,1029.6c3.3,0.2,4.7,1.5,4.7,3.4c0,2.4-2.4,4.4-6.1,4.4c-3.9,0-5.6-1.9-5.6-3.7c0-0.8,0.6-1.8,2.2-3.1
	c-0.4-0.5-0.5-1.2-0.5-1.8c0-0.6,0.1-1.1,0.4-1.6c-1-0.6-1.7-1.7-1.7-3.1c0-2.3,1.8-4.1,4.8-4.1c0.8,0,1.6,0.1,2.1,0.2
	c0.2,0,0.4,0.1,0.6,0.1h3.3c0.1,0,0.1,0,0.1,0.1v2c0,0.1,0,0.1-0.1,0.1c-0.5,0-1.3,0-1.8-0.1c0.3,0.4,0.5,1,0.5,1.8
	c0,2.6-2,3.9-4.6,3.9c-0.3,0-0.6,0-1-0.1c-0.1,0.2-0.1,0.5-0.1,0.7c0,0.3,0.1,0.5,0.3,0.7L181.9,1029.6z M178.7,1031.9
	c-0.7,0.5-1.2,1.2-1.2,1.6c0,0.8,1.2,1.8,3.1,1.8c2.3,0,3.3-0.9,3.3-1.8c0-1.1-1.2-1.3-2.7-1.4L178.7,1031.9z M178.2,1024.1
	c0,1.1,0.7,1.9,1.9,1.9c1.2,0,1.9-0.7,1.9-1.9c0-1.1-0.6-2-1.9-2C178.9,1022.1,178.2,1022.9,178.2,1024.1z M190.1,1026.8
	c0.1,1.7,1.2,3,3.6,3c1.1,0,2.1-0.2,3-0.6c0.1,0,0.1,0,0.1,0.1v2c0,0.1,0,0.2-0.1,0.3c-0.9,0.4-2,0.7-3.6,0.7c-4.4,0-5.9-3.1-5.9-6
	c0-3.3,2-6.3,5.6-6.3c3.6,0,4.9,2.8,4.9,5.1c0,0.7,0,1.2-0.1,1.5c0,0.1-0.1,0.1-0.2,0.2c-0.3,0.1-1.3,0.1-2.5,0.1H190.1z
	 M193.7,1024.8c0.9,0,1.2,0,1.3,0c0-0.1,0-0.2,0-0.2c0-0.7-0.5-2.2-2.3-2.2c-1.7,0-2.4,1.3-2.6,2.4H193.7z M203.9,1022.4
	c-1.3,0-1.7,0.5-1.7,1c0,0.5,0.4,0.9,1.9,1.5c2.7,1,3.7,2.1,3.7,3.8c0,2.3-1.8,3.7-4.7,3.7c-1.4,0-2.7-0.3-3.4-0.7
	c-0.1-0.1-0.2-0.1-0.2-0.3v-2.3c0-0.1,0.1-0.2,0.2-0.1c1,0.7,2.4,1,3.4,1c1.2,0,1.8-0.4,1.8-1.1c0-0.6-0.5-1-1.9-1.6
	c-2.6-1-3.6-2-3.6-3.8c0-1.8,1.5-3.5,4.5-3.5c1.4,0,2.4,0.2,3,0.5c0.1,0.1,0.1,0.2,0.1,0.3v2.1c0,0.1-0.1,0.2-0.2,0.1
	C206.2,1022.6,205,1022.4,203.9,1022.4z M216.9,1020.3c0.1,0,0.2,0,0.2,0.1c1.6,4.5,2.4,7.1,2.7,8.3c0.8-2.4,1.6-4.9,2.7-8.3
	c0-0.1,0.1-0.1,0.3-0.1h2.5c0.1,0,0.2,0.1,0.1,0.2c-1.7,5.3-4.3,11.8-6.3,16.2c0,0.1-0.1,0.2-0.3,0.2l-2.6,0.2c-0.1,0-0.2,0-0.1-0.2
	c0.7-1.4,1.5-3.1,2.3-5c0-0.1,0.1-0.2,0-0.4c-0.6-1.6-3-7.3-4.4-11.1c0-0.1,0-0.2,0.1-0.2H216.9z M237.8,1026.1
	c0,3.7-2.4,6.2-5.8,6.2c-4,0-5.8-3.1-5.8-6.1c0-3.4,2.2-6.2,5.8-6.2C235.8,1020,237.8,1022.8,237.8,1026.1z M229.2,1026.2
	c0,2.2,1.1,3.7,2.9,3.7c1.5,0,2.8-1.2,2.8-3.7c0-2-0.9-3.7-2.9-3.7C230.4,1022.5,229.2,1023.9,229.2,1026.2z M250.1,1029.5
	c0,1.2,0.1,2,0.1,2.5c0,0.1,0,0.2-0.2,0.2h-2.2c-0.2,0-0.2,0-0.2-0.1c-0.1-0.2-0.1-0.6-0.2-0.8c-1,1-2.3,1.2-3.3,1.2
	c-2.3,0-4-1.2-4-4.6v-7.3c0-0.1,0-0.2,0.2-0.2h2.5c0.1,0,0.2,0,0.2,0.2v7c0,1.5,0.6,2.4,2.1,2.4c0.9,0,1.6-0.3,2.2-0.9v-8.5
	c0-0.1,0-0.2,0.2-0.2h2.5c0.1,0,0.2,0,0.2,0.2V1029.5z M268.3,1032.1c-0.2,0-0.2-0.1-0.3-0.2c-1.4-5.4-1.8-7.5-2-8.7h0
	c-0.6,2.4-1.2,4.7-2.3,8.7c0,0.1-0.1,0.2-0.3,0.2h-2.6c-0.2,0-0.3,0-0.3-0.2l-3.1-11.4c0-0.1,0-0.2,0.2-0.2h2.6c0.1,0,0.2,0,0.2,0.1
	c1.4,5.6,1.8,7.9,2,8.9h0c0.2-0.8,0.6-3,2.2-8.8c0-0.1,0-0.2,0.2-0.2h2.8c0.1,0,0.2,0,0.2,0.1c1.5,5.9,1.8,8,2,9h0
	c0.3-1.4,0.6-3.8,2-9c0-0.1,0.1-0.1,0.2-0.1h2.4c0.1,0,0.2,0,0.1,0.2l-3.4,11.5c-0.1,0.1-0.1,0.2-0.3,0.2H268.3z M285,1029.7
	c0,0.5,0,1,0,1.5c0,0,0,0.1,0,0.1c-2,0.8-3.4,1.1-5,1.1c-2.6,0-4.7-1.2-4.7-3.9c0-2.5,2.3-3.8,5.4-3.8c0.7,0,1.3,0,1.5,0v-0.3
	c0-0.6-0.3-1.8-2.4-1.8c-1.2,0-2.3,0.2-3.1,0.7c-0.1,0-0.2,0-0.2-0.1v-2.1c0-0.1,0-0.2,0.1-0.2c1-0.5,2.4-0.7,3.6-0.7
	c3.3,0,4.8,2.1,4.8,4.8V1029.7z M282.2,1026.8c-0.4,0-0.8-0.1-1.3-0.1c-1.9,0-2.7,0.6-2.7,1.7c0,0.9,0.6,1.7,2.4,1.7
	c0.6,0,1.2-0.1,1.7-0.3V1026.8z M288,1023c0-0.8,0-2.1-0.1-2.6c0-0.1,0-0.2,0.2-0.2h2.2c0.2,0,0.2,0,0.3,0.2
	c0.1,0.2,0.1,0.5,0.2,0.9c1-0.9,2.2-1.3,3.5-1.3c1.8,0,4,0.9,4,4.8v7.1c0,0.2-0.1,0.2-0.2,0.2h-2.5c-0.1,0-0.2-0.1-0.2-0.2v-6.8
	c0-1.6-0.7-2.5-2.1-2.5c-1,0-1.8,0.4-2.3,1v8.4c0,0.1-0.1,0.2-0.2,0.2h-2.5c-0.1,0-0.2-0.1-0.2-0.2V1023z M306.8,1031.7
	c0,0.1,0,0.2-0.1,0.3c-0.6,0.2-1.2,0.3-2,0.3c-2,0-3.1-1-3.1-3.3v-6.3H300c-0.1,0-0.2-0.1-0.2-0.2v-2c0-0.1,0-0.2,0.2-0.2h1.5
	c0-0.8,0.1-2.4,0.2-3c0-0.1,0.1-0.2,0.2-0.2l2.4-0.3c0.1,0,0.2,0,0.2,0.1c-0.1,0.8-0.1,2.2-0.1,3.4h2.3c0.1,0,0.2,0,0.2,0.2v2.1
	c0,0.1,0,0.2-0.2,0.2h-2.4v5.7c0,1.1,0.3,1.6,1.4,1.6c0.3,0,0.6,0,0.9-0.1c0.1,0,0.1,0,0.1,0.1V1031.7z M308.4,1035.3
	c-0.1,0-0.2-0.1-0.1-0.2c1.2-2.4,1.4-4.3,1.3-6.5c0-0.1,0.1-0.1,0.1-0.1h2.4c0.1,0,0.2,0,0.2,0.2c0.2,2.3-0.3,4.7-1.6,6.5
	c0,0-0.1,0.1-0.3,0.1H308.4z M323.8,1022.4c-1.3,0-1.7,0.5-1.7,1c0,0.5,0.4,0.9,1.9,1.5c2.7,1,3.7,2.1,3.7,3.8
	c0,2.3-1.8,3.7-4.7,3.7c-1.4,0-2.7-0.3-3.4-0.7c-0.1-0.1-0.2-0.1-0.2-0.3v-2.3c0-0.1,0.1-0.2,0.2-0.1c1,0.7,2.4,1,3.4,1
	c1.2,0,1.8-0.4,1.8-1.1c0-0.6-0.5-1-1.9-1.6c-2.6-1-3.6-2-3.6-3.8c0-1.8,1.5-3.5,4.5-3.5c1.4,0,2.4,0.2,3,0.5
	c0.1,0.1,0.1,0.2,0.1,0.3v2.1c0,0.1-0.1,0.2-0.2,0.1C326.1,1022.6,324.9,1022.4,323.8,1022.4z M339,1029.7c0,0.5,0,1,0,1.5
	c0,0,0,0.1,0,0.1c-2,0.8-3.4,1.1-5,1.1c-2.6,0-4.7-1.2-4.7-3.9c0-2.5,2.3-3.8,5.4-3.8c0.7,0,1.3,0,1.5,0v-0.3c0-0.6-0.3-1.8-2.4-1.8
	c-1.2,0-2.3,0.2-3.1,0.7c-0.1,0-0.2,0-0.2-0.1v-2.1c0-0.1,0-0.2,0.1-0.2c1-0.5,2.4-0.7,3.6-0.7c3.3,0,4.8,2.1,4.8,4.8V1029.7z
	 M336.2,1026.8c-0.4,0-0.8-0.1-1.3-0.1c-1.9,0-2.7,0.6-2.7,1.7c0,0.9,0.6,1.7,2.4,1.7c0.6,0,1.2-0.1,1.7-0.3V1026.8z M344.5,1032.1
	c-0.1,0-0.2-0.1-0.2-0.1c-0.8-2.3-3.1-9.1-4-11.5c0-0.1,0-0.2,0.1-0.2h2.7c0.1,0,0.2,0,0.2,0.1c1.7,5.6,2.4,7.9,2.6,9h0
	c0.3-1.1,1-3.3,2.8-9c0-0.1,0.1-0.1,0.2-0.1h2.4c0.1,0,0.2,0,0.1,0.2c-0.9,2.5-3.2,9.2-4.1,11.5c0,0.1-0.1,0.2-0.3,0.2H344.5z
	 M355.4,1026.8c0.1,1.7,1.2,3,3.6,3c1.1,0,2.1-0.2,3-0.6c0.1,0,0.1,0,0.1,0.1v2c0,0.1,0,0.2-0.1,0.3c-0.9,0.4-2,0.7-3.6,0.7
	c-4.4,0-5.9-3.1-5.9-6c0-3.3,2-6.3,5.6-6.3c3.6,0,4.9,2.8,4.9,5.1c0,0.7,0,1.2-0.1,1.5c0,0.1-0.1,0.1-0.2,0.2
	c-0.3,0.1-1.3,0.1-2.5,0.1H355.4z M359,1024.8c0.9,0,1.2,0,1.3,0c0-0.1,0-0.2,0-0.2c0-0.7-0.5-2.2-2.3-2.2c-1.7,0-2.4,1.3-2.6,2.4
	H359z M363.9,1035.3c-0.1,0-0.2-0.1-0.1-0.2c1.2-2.4,1.4-4.3,1.3-6.5c0-0.1,0.1-0.1,0.1-0.1h2.4c0.1,0,0.2,0,0.2,0.2
	c0.2,2.3-0.3,4.7-1.6,6.5c0,0-0.1,0.1-0.3,0.1H363.9z M381.4,1031.7c0,0.1,0,0.2-0.1,0.3c-0.6,0.2-1.2,0.3-2,0.3c-2,0-3.1-1-3.1-3.3
	v-6.3h-1.5c-0.1,0-0.2-0.1-0.2-0.2v-2c0-0.1,0-0.2,0.2-0.2h1.5c0-0.8,0.1-2.4,0.2-3c0-0.1,0.1-0.2,0.2-0.2l2.4-0.3
	c0.1,0,0.2,0,0.2,0.1c-0.1,0.8-0.1,2.2-0.1,3.4h2.3c0.1,0,0.2,0,0.2,0.2v2.1c0,0.1,0,0.2-0.2,0.2H379v5.7c0,1.1,0.3,1.6,1.4,1.6
	c0.3,0,0.6,0,0.9-0.1c0.1,0,0.1,0,0.1,0.1V1031.7z M386.4,1031.9c0,0.1,0,0.2-0.2,0.2h-2.5c-0.1,0-0.2-0.1-0.2-0.2v-16.7
	c0-0.1,0-0.2,0.2-0.2h2.5c0.1,0,0.2,0,0.2,0.2v6c0.9-0.7,1.9-1.1,3.3-1.1c1.8,0,4,0.9,4,4.8v7.1c0,0.2-0.1,0.2-0.2,0.2H391
	c-0.1,0-0.2-0.1-0.2-0.2v-6.8c0-1.6-0.7-2.5-2.1-2.5c-0.9,0-1.7,0.3-2.3,0.8V1031.9z M398.9,1026.8c0.1,1.7,1.2,3,3.6,3
	c1.1,0,2.1-0.2,3-0.6c0.1,0,0.1,0,0.1,0.1v2c0,0.1,0,0.2-0.1,0.3c-0.9,0.4-2,0.7-3.6,0.7c-4.4,0-5.9-3.1-5.9-6c0-3.3,2-6.3,5.6-6.3
	c3.6,0,4.9,2.8,4.9,5.1c0,0.7,0,1.2-0.1,1.5c0,0.1-0.1,0.1-0.2,0.2c-0.3,0.1-1.3,0.1-2.5,0.1H398.9z M402.5,1024.8
	c0.9,0,1.2,0,1.3,0c0-0.1,0-0.2,0-0.2c0-0.7-0.5-2.2-2.3-2.2c-1.7,0-2.4,1.3-2.6,2.4H402.5z M408.8,1023c0-0.8,0-2.1-0.1-2.6
	c0-0.1,0-0.2,0.2-0.2h2.2c0.2,0,0.2,0,0.3,0.2c0.1,0.2,0.1,0.5,0.2,0.9c1-0.9,2.2-1.3,3.5-1.3c1.8,0,4,0.9,4,4.8v7.1
	c0,0.2-0.1,0.2-0.2,0.2h-2.5c-0.1,0-0.2-0.1-0.2-0.2v-6.8c0-1.6-0.7-2.5-2.1-2.5c-1,0-1.8,0.4-2.3,1v8.4c0,0.1-0.1,0.2-0.2,0.2H409
	c-0.1,0-0.2-0.1-0.2-0.2V1023z M431.1,1022.4c-1.3,0-1.7,0.5-1.7,1c0,0.5,0.4,0.9,1.9,1.5c2.7,1,3.7,2.1,3.7,3.8
	c0,2.3-1.8,3.7-4.7,3.7c-1.4,0-2.7-0.3-3.4-0.7c-0.1-0.1-0.2-0.1-0.2-0.3v-2.3c0-0.1,0.1-0.2,0.2-0.1c1,0.7,2.4,1,3.4,1
	c1.2,0,1.8-0.4,1.8-1.1c0-0.6-0.5-1-1.9-1.6c-2.6-1-3.6-2-3.6-3.8c0-1.8,1.5-3.5,4.5-3.5c1.4,0,2.4,0.2,3,0.5
	c0.1,0.1,0.1,0.2,0.1,0.3v2.1c0,0.1-0.1,0.2-0.2,0.1C433.4,1022.6,432.2,1022.4,431.1,1022.4z M446.9,1032.1c-0.2,0-0.2-0.1-0.3-0.2
	c-1.4-5.4-1.8-7.5-2-8.7h0c-0.6,2.4-1.2,4.7-2.3,8.7c0,0.1-0.1,0.2-0.3,0.2h-2.6c-0.2,0-0.3,0-0.3-0.2l-3.1-11.4
	c0-0.1,0-0.2,0.2-0.2h2.6c0.1,0,0.2,0,0.2,0.1c1.4,5.6,1.8,7.9,2,8.9h0c0.2-0.8,0.6-3,2.2-8.8c0-0.1,0-0.2,0.2-0.2h2.8
	c0.1,0,0.2,0,0.2,0.1c1.5,5.9,1.8,8,2,9h0c0.3-1.4,0.6-3.8,2-9c0-0.1,0.1-0.1,0.2-0.1h2.4c0.1,0,0.2,0,0.1,0.2l-3.4,11.5
	c-0.1,0.1-0.1,0.2-0.3,0.2H446.9z M454.9,1017c0-1,0.7-1.7,1.7-1.7c1,0,1.6,0.7,1.6,1.7c0,1-0.6,1.7-1.7,1.7
	C455.6,1018.7,454.9,1018,454.9,1017z M455.1,1020.4c0-0.1,0.1-0.2,0.2-0.2h2.5c0.1,0,0.2,0,0.2,0.2v11.5c0,0.1,0,0.2-0.2,0.2h-2.5
	c-0.2,0-0.2-0.1-0.2-0.2V1020.4z M466.9,1031.7c0,0.1,0,0.2-0.1,0.3c-0.6,0.2-1.2,0.3-2,0.3c-2,0-3.1-1-3.1-3.3v-6.3H460
	c-0.1,0-0.2-0.1-0.2-0.2v-2c0-0.1,0-0.2,0.2-0.2h1.5c0-0.8,0.1-2.4,0.2-3c0-0.1,0.1-0.2,0.2-0.2l2.4-0.3c0.1,0,0.2,0,0.2,0.1
	c-0.1,0.8-0.1,2.2-0.1,3.4h2.3c0.1,0,0.2,0,0.2,0.2v2.1c0,0.1,0,0.2-0.2,0.2h-2.4v5.7c0,1.1,0.3,1.6,1.4,1.6c0.3,0,0.6,0,0.9-0.1
	c0.1,0,0.1,0,0.1,0.1V1031.7z M477.1,1031.8c0,0.1,0,0.2-0.1,0.2c-0.8,0.3-1.7,0.4-2.7,0.4c-3.9,0-6.2-2.7-6.2-6.1
	c0-3.6,2.6-6.2,6.6-6.2c1.2,0,1.8,0.1,2.3,0.3c0.1,0,0.1,0.1,0.1,0.3l0,2.1c0,0.2-0.1,0.2-0.2,0.1c-0.5-0.2-1.1-0.3-2.1-0.3
	c-2.2,0-3.7,1.3-3.7,3.6c0,2.6,1.9,3.6,3.7,3.6c0.9,0,1.6-0.1,2.1-0.2c0.1,0,0.2,0,0.2,0.1V1031.8z M482.2,1031.9
	c0,0.1,0,0.2-0.2,0.2h-2.5c-0.1,0-0.2-0.1-0.2-0.2v-16.7c0-0.1,0-0.2,0.2-0.2h2.5c0.1,0,0.2,0,0.2,0.2v6c0.9-0.7,1.9-1.1,3.3-1.1
	c1.8,0,4,0.9,4,4.8v7.1c0,0.2-0.1,0.2-0.2,0.2h-2.5c-0.1,0-0.2-0.1-0.2-0.2v-6.8c0-1.6-0.7-2.5-2.1-2.5c-0.9,0-1.7,0.3-2.3,0.8
	V1031.9z M500.7,1015c0.2,0,0.2,0,0.2,0.2l0,5.2c0.6-0.2,1.4-0.3,2.2-0.3c3.5,0,5.7,2.4,5.7,5.7c0,4.4-3.5,6.6-7,6.6
	c-1.2,0-2.4-0.2-3.6-0.5c-0.1,0-0.2-0.1-0.2-0.2v-16.4c0-0.1,0.1-0.2,0.2-0.2H500.7z M502.6,1022.5c-0.8,0-1.3,0.1-1.7,0.3v7
	c0.3,0.1,0.7,0.1,1.1,0.1c2,0,3.8-1.2,3.8-3.9C505.9,1023.7,504.5,1022.5,502.6,1022.5z M520.1,1029.7c0,0.5,0,1,0,1.5
	c0,0,0,0.1,0,0.1c-2,0.8-3.4,1.1-5,1.1c-2.6,0-4.7-1.2-4.7-3.9c0-2.5,2.3-3.8,5.4-3.8c0.7,0,1.3,0,1.5,0v-0.3c0-0.6-0.3-1.8-2.4-1.8
	c-1.2,0-2.3,0.2-3.1,0.7c-0.1,0-0.2,0-0.2-0.1v-2.1c0-0.1,0-0.2,0.1-0.2c1-0.5,2.4-0.7,3.6-0.7c3.3,0,4.8,2.1,4.8,4.8V1029.7z
	 M517.3,1026.8c-0.4,0-0.8-0.1-1.3-0.1c-1.9,0-2.7,0.6-2.7,1.7c0,0.9,0.6,1.7,2.4,1.7c0.6,0,1.2-0.1,1.7-0.3V1026.8z M531.3,1031.8
	c0,0.1,0,0.2-0.1,0.2c-0.8,0.3-1.7,0.4-2.7,0.4c-3.9,0-6.2-2.7-6.2-6.1c0-3.6,2.6-6.2,6.6-6.2c1.2,0,1.8,0.1,2.3,0.3
	c0.1,0,0.1,0.1,0.1,0.3l0,2.1c0,0.2-0.1,0.2-0.2,0.1c-0.5-0.2-1.1-0.3-2.1-0.3c-2.2,0-3.7,1.3-3.7,3.6c0,2.6,1.9,3.6,3.7,3.6
	c0.9,0,1.6-0.1,2.1-0.2c0.1,0,0.2,0,0.2,0.1V1031.8z M543.8,1020.3c0.2,0,0.2,0.1,0.1,0.2c-0.7,0.8-3.8,4.1-4.8,5.1c0,0,0,0,0,0.1
	c1.5,1.7,3.8,4.4,5.4,6.2c0.1,0.1,0,0.2-0.1,0.2h-3.3c-0.2,0-0.2,0-0.3-0.2c-0.9-1-3.2-3.9-4.4-5.3v5.3c0,0.2,0,0.2-0.2,0.2h-2.5
	c-0.2,0-0.2,0-0.2-0.2v-16.7c0-0.1,0-0.2,0.2-0.2h2.5c0.1,0,0.2,0,0.2,0.2v10.2c1.3-1.4,3.8-4.3,4.3-4.9c0.1-0.1,0.2-0.1,0.3-0.1
	H543.8z M556.6,1031.7c0,0.1,0,0.2-0.1,0.3c-0.6,0.2-1.2,0.3-2,0.3c-2,0-3.1-1-3.1-3.3v-6.3h-1.5c-0.1,0-0.2-0.1-0.2-0.2v-2
	c0-0.1,0-0.2,0.2-0.2h1.5c0-0.8,0.1-2.4,0.2-3c0-0.1,0.1-0.2,0.2-0.2l2.4-0.3c0.1,0,0.2,0,0.2,0.1c-0.1,0.8-0.1,2.2-0.1,3.4h2.3
	c0.1,0,0.2,0,0.2,0.2v2.1c0,0.1,0,0.2-0.2,0.2h-2.4v5.7c0,1.1,0.3,1.6,1.4,1.6c0.3,0,0.6,0,0.9-0.1c0.1,0,0.1,0,0.1,0.1V1031.7z
	 M569.3,1026.1c0,3.7-2.4,6.2-5.8,6.2c-4,0-5.8-3.1-5.8-6.1c0-3.4,2.2-6.2,5.8-6.2C567.3,1020,569.3,1022.8,569.3,1026.1z
	 M560.7,1026.2c0,2.2,1.1,3.7,2.9,3.7c1.5,0,2.8-1.2,2.8-3.7c0-2-0.9-3.7-2.9-3.7C561.9,1022.5,560.7,1023.9,560.7,1026.2z
	 M588.2,1031.6c0,0.1,0,0.3-0.2,0.3c-0.8,0.3-2,0.4-3.3,0.4c-4.4,0-8.2-2.6-8.2-8.1c0-4.8,3.4-8.2,8.6-8.2c1.6,0,2.5,0.1,3.1,0.4
	c0.1,0,0.1,0.1,0.1,0.3v2.3c0,0.2-0.1,0.2-0.2,0.1c-0.8-0.4-1.9-0.5-3.1-0.5c-3.4,0-5.5,2.2-5.5,5.5c0,4.2,3.1,5.6,5.6,5.6
	c1.2,0,2.1-0.1,3-0.4c0.1,0,0.2,0,0.2,0.1V1031.6z M593.3,1031.9c0,0.1,0,0.2-0.2,0.2h-2.5c-0.1,0-0.2-0.1-0.2-0.2v-16.7
	c0-0.1,0-0.2,0.2-0.2h2.5c0.1,0,0.2,0,0.2,0.2v6c0.9-0.7,1.9-1.1,3.3-1.1c1.8,0,4,0.9,4,4.8v7.1c0,0.2-0.1,0.2-0.2,0.2h-2.5
	c-0.1,0-0.2-0.1-0.2-0.2v-6.8c0-1.6-0.7-2.5-2.1-2.5c-0.9,0-1.7,0.3-2.3,0.8V1031.9z M612.5,1029.7c0,0.5,0,1,0,1.5c0,0,0,0.1,0,0.1
	c-2,0.8-3.4,1.1-5,1.1c-2.6,0-4.7-1.2-4.7-3.9c0-2.5,2.3-3.8,5.4-3.8c0.7,0,1.3,0,1.5,0v-0.3c0-0.6-0.3-1.8-2.4-1.8
	c-1.2,0-2.3,0.2-3.1,0.7c-0.1,0-0.2,0-0.2-0.1v-2.1c0-0.1,0-0.2,0.1-0.2c1-0.5,2.4-0.7,3.6-0.7c3.3,0,4.8,2.1,4.8,4.8V1029.7z
	 M609.7,1026.8c-0.4,0-0.8-0.1-1.3-0.1c-1.9,0-2.7,0.6-2.7,1.7c0,0.9,0.6,1.7,2.4,1.7c0.6,0,1.2-0.1,1.7-0.3V1026.8z M617.8,1020.3
	c0.1,0,0.2,0,0.3,0.2c0.1,0.3,0.2,0.9,0.2,1.4c0.8-1,2.2-1.9,3.8-1.9c0.1,0,0.2,0,0.2,0.2v2.5c0,0.1,0,0.2-0.2,0.2
	c-1.7,0-3.1,0.6-3.7,1.3v7.7c0,0.1-0.1,0.2-0.2,0.2h-2.5c-0.2,0-0.2-0.1-0.2-0.2v-8.3c0-1,0-2.4-0.1-3.2c0-0.1,0-0.1,0.1-0.1H617.8z
	 M632.7,1029.7c0,0.5,0,1,0,1.5c0,0,0,0.1,0,0.1c-2,0.8-3.4,1.1-5,1.1c-2.6,0-4.7-1.2-4.7-3.9c0-2.5,2.3-3.8,5.4-3.8
	c0.7,0,1.3,0,1.5,0v-0.3c0-0.6-0.3-1.8-2.4-1.8c-1.2,0-2.3,0.2-3.1,0.7c-0.1,0-0.2,0-0.2-0.1v-2.1c0-0.1,0-0.2,0.1-0.2
	c1-0.5,2.4-0.7,3.6-0.7c3.3,0,4.8,2.1,4.8,4.8V1029.7z M629.8,1026.8c-0.4,0-0.8-0.1-1.3-0.1c-1.9,0-2.7,0.6-2.7,1.7
	c0,0.9,0.6,1.7,2.4,1.7c0.6,0,1.2-0.1,1.7-0.3V1026.8z M643.8,1031.8c0,0.1,0,0.2-0.1,0.2c-0.8,0.3-1.7,0.4-2.7,0.4
	c-3.9,0-6.2-2.7-6.2-6.1c0-3.6,2.6-6.2,6.6-6.2c1.2,0,1.8,0.1,2.3,0.3c0.1,0,0.1,0.1,0.1,0.3l0,2.1c0,0.2-0.1,0.2-0.2,0.1
	c-0.5-0.2-1.1-0.3-2.1-0.3c-2.2,0-3.7,1.3-3.7,3.6c0,2.6,1.9,3.6,3.7,3.6c0.9,0,1.6-0.1,2.1-0.2c0.1,0,0.2,0,0.2,0.1V1031.8z
	 M652.2,1031.7c0,0.1,0,0.2-0.1,0.3c-0.6,0.2-1.2,0.3-2,0.3c-2,0-3.1-1-3.1-3.3v-6.3h-1.5c-0.1,0-0.2-0.1-0.2-0.2v-2
	c0-0.1,0-0.2,0.2-0.2h1.5c0-0.8,0.1-2.4,0.2-3c0-0.1,0.1-0.2,0.2-0.2l2.4-0.3c0.1,0,0.2,0,0.2,0.1c-0.1,0.8-0.1,2.2-0.1,3.4h2.3
	c0.1,0,0.2,0,0.2,0.2v2.1c0,0.1,0,0.2-0.2,0.2h-2.4v5.7c0,1.1,0.3,1.6,1.4,1.6c0.3,0,0.6,0,0.9-0.1c0.1,0,0.1,0,0.1,0.1V1031.7z
	 M656.3,1026.8c0.1,1.7,1.2,3,3.6,3c1.1,0,2.1-0.2,3-0.6c0.1,0,0.1,0,0.1,0.1v2c0,0.1,0,0.2-0.1,0.3c-0.9,0.4-2,0.7-3.6,0.7
	c-4.4,0-5.9-3.1-5.9-6c0-3.3,2-6.3,5.6-6.3c3.6,0,4.9,2.8,4.9,5.1c0,0.7,0,1.2-0.1,1.5c0,0.1-0.1,0.1-0.2,0.2
	c-0.3,0.1-1.3,0.1-2.5,0.1H656.3z M659.9,1024.8c0.9,0,1.2,0,1.3,0c0-0.1,0-0.2,0-0.2c0-0.7-0.5-2.2-2.3-2.2c-1.7,0-2.4,1.3-2.6,2.4
	H659.9z M668.5,1020.3c0.1,0,0.2,0,0.3,0.2c0.1,0.3,0.2,0.9,0.2,1.4c0.8-1,2.2-1.9,3.8-1.9c0.1,0,0.2,0,0.2,0.2v2.5
	c0,0.1,0,0.2-0.2,0.2c-1.7,0-3.1,0.6-3.7,1.3v7.7c0,0.1-0.1,0.2-0.2,0.2h-2.5c-0.2,0-0.2-0.1-0.2-0.2v-8.3c0-1,0-2.4-0.1-3.2
	c0-0.1,0-0.1,0.1-0.1H668.5z M682.8,1028l-1.3,4c0,0.1-0.1,0.2-0.3,0.2h-2.4c-0.1,0-0.2-0.1-0.2-0.2l4.9-14.1
	c0.1-0.2,0.2-0.5,0.2-1.3c0-0.1,0-0.2,0.1-0.2h3.3c0.1,0,0.1,0,0.2,0.1l5.5,15.4c0,0.1,0,0.2-0.1,0.2h-2.7c-0.1,0-0.2,0-0.2-0.1
	l-1.4-4H682.8z M687.7,1025.3c-0.5-1.6-1.6-4.9-2.1-6.6h0c-0.4,1.6-1.3,4.4-2.1,6.6H687.7z M694.6,1023c0-0.8,0-2.1-0.1-2.6
	c0-0.1,0-0.2,0.2-0.2h2.2c0.2,0,0.2,0,0.3,0.2c0.1,0.2,0.1,0.5,0.2,0.9c1-0.9,2.2-1.3,3.5-1.3c1.8,0,4,0.9,4,4.8v7.1
	c0,0.2-0.1,0.2-0.2,0.2h-2.5c-0.1,0-0.2-0.1-0.2-0.2v-6.8c0-1.6-0.7-2.5-2.1-2.5c-1,0-1.8,0.4-2.3,1v8.4c0,0.1-0.1,0.2-0.2,0.2h-2.5
	c-0.1,0-0.2-0.1-0.2-0.2V1023z M707.6,1017c0-1,0.7-1.7,1.7-1.7c1,0,1.6,0.7,1.6,1.7c0,1-0.6,1.7-1.7,1.7
	C708.3,1018.7,707.6,1018,707.6,1017z M707.8,1020.4c0-0.1,0.1-0.2,0.2-0.2h2.5c0.1,0,0.2,0,0.2,0.2v11.5c0,0.1,0,0.2-0.2,0.2H708
	c-0.2,0-0.2-0.1-0.2-0.2V1020.4z M713.9,1032.1c-0.1,0-0.2-0.1-0.2-0.2v-9.1c0-0.9,0-1.9-0.1-2.4c0-0.1,0-0.2,0.2-0.2h2.2
	c0.1,0,0.2,0,0.2,0.1c0.1,0.2,0.1,0.6,0.1,1c1.1-1,2.2-1.3,3.5-1.3c1.4,0,2.4,0.5,3.1,1.6c1-0.9,2.3-1.6,3.9-1.6
	c2,0,4.1,1.1,4.1,4.7v7.2c0,0.1-0.1,0.2-0.2,0.2h-2.5c-0.2,0-0.2-0.1-0.2-0.2v-6.9c0-1.4-0.6-2.4-2-2.4c-0.9,0-1.8,0.4-2.4,1
	c0,0.3,0.1,0.9,0.1,1.4v7c0,0.1,0,0.2-0.2,0.2h-2.5c-0.1,0-0.2,0-0.2-0.2v-7c0-1.6-0.7-2.4-2-2.4c-0.9,0-1.6,0.3-2.3,0.9v8.5
	c0,0.1,0,0.2-0.2,0.2H713.9z M742.9,1029.7c0,0.5,0,1,0,1.5c0,0,0,0.1,0,0.1c-2,0.8-3.4,1.1-5,1.1c-2.6,0-4.7-1.2-4.7-3.9
	c0-2.5,2.3-3.8,5.4-3.8c0.7,0,1.3,0,1.5,0v-0.3c0-0.6-0.3-1.8-2.4-1.8c-1.2,0-2.3,0.2-3.1,0.7c-0.1,0-0.2,0-0.2-0.1v-2.1
	c0-0.1,0-0.2,0.1-0.2c1-0.5,2.4-0.7,3.6-0.7c3.3,0,4.8,2.1,4.8,4.8V1029.7z M740,1026.8c-0.4,0-0.8-0.1-1.3-0.1
	c-1.9,0-2.7,0.6-2.7,1.7c0,0.9,0.6,1.7,2.4,1.7c0.6,0,1.2-0.1,1.7-0.3V1026.8z M751.4,1031.7c0,0.1,0,0.2-0.1,0.3
	c-0.6,0.2-1.2,0.3-2,0.3c-2,0-3.1-1-3.1-3.3v-6.3h-1.5c-0.1,0-0.2-0.1-0.2-0.2v-2c0-0.1,0-0.2,0.2-0.2h1.5c0-0.8,0.1-2.4,0.2-3
	c0-0.1,0.1-0.2,0.2-0.2l2.4-0.3c0.1,0,0.2,0,0.2,0.1c-0.1,0.8-0.1,2.2-0.1,3.4h2.3c0.1,0,0.2,0,0.2,0.2v2.1c0,0.1,0,0.2-0.2,0.2
	h-2.4v5.7c0,1.1,0.3,1.6,1.4,1.6c0.3,0,0.6,0,0.9-0.1c0.1,0,0.1,0,0.1,0.1V1031.7z M764.1,1026.1c0,3.7-2.4,6.2-5.8,6.2
	c-4,0-5.8-3.1-5.8-6.1c0-3.4,2.2-6.2,5.8-6.2C762.1,1020,764.1,1022.8,764.1,1026.1z M755.5,1026.2c0,2.2,1.1,3.7,2.9,3.7
	c1.5,0,2.8-1.2,2.8-3.7c0-2-0.9-3.7-2.9-3.7C756.7,1022.5,755.5,1023.9,755.5,1026.2z M768.7,1020.3c0.1,0,0.2,0,0.3,0.2
	c0.1,0.3,0.2,0.9,0.2,1.4c0.8-1,2.2-1.9,3.8-1.9c0.1,0,0.2,0,0.2,0.2v2.5c0,0.1,0,0.2-0.2,0.2c-1.7,0-3.1,0.6-3.7,1.3v7.7
	c0,0.1-0.1,0.2-0.2,0.2h-2.5c-0.2,0-0.2-0.1-0.2-0.2v-8.3c0-1,0-2.4-0.1-3.2c0-0.1,0-0.1,0.1-0.1H768.7z M773,1030.5
	c0-1,0.7-1.8,1.8-1.8c1.1,0,1.8,0.7,1.8,1.8c0,1.1-0.7,1.8-1.8,1.8C773.8,1032.3,773,1031.7,773,1030.5z"/>
<g id="body_2_">
	<polygon id="pants_2_" class="st2" points="318.5,979.1 318.5,684.4 502.8,684.4 502.8,979.1 432.2,979.1 432.2,761.8 390.2,761.8 
		390.2,979.1 	"/>
	<path id="torso_and_shoes_2_" class="st3" d="M499.8,991.4H437c-6.6,0-12-5.4-12-12v-2.7c0-6.6,5.4-12,12-12h62.8
		c6.6,0,12,5.4,12,12v2.7C511.8,986,506.4,991.4,499.8,991.4z M395.8,979.4v-2.7c0-6.6-5.4-12-12-12H321c-6.6,0-12,5.4-12,12v2.7
		c0,6.6,5.4,12,12,12h62.8C390.4,991.4,395.8,986,395.8,979.4z M507.3,701.1c11.5-205-22-342-96.5-342s-104,121-95.5,342
		C315.3,701.1,483.8,701.1,507.3,701.1z"/>
	<path id="icon_2_" class="st4" d="M375.6,526.8c0-23.1,0-44.8,0-67.9c23.6,0,47.2,0,70.7,0c0,23.1,0,44.8,0,67.9
		C422.8,526.8,399.2,526.8,375.6,526.8z M379.2,523.8c21.2,0,42.4,0,63.6,0c0-20.6,0-41.2,0-61.9c-21.2,0-42.4,0-63.6,0
		C379.2,482.5,379.2,503.1,379.2,523.8z M419.4,475.2c0-0.5,0-0.5-0.5-0.5c-1.4,0-2.8,0-4.2,0c-0.5,0-0.5,0-0.5,0.5
		c0,10.2,0,20.4,0,30.7c0,0.1,0,0.2,0,0.3c0,0.2,0.1,0.4,0.4,0.4c1.5,0,3,0,4.5,0c0.2,0,0.3-0.1,0.3-0.3c0-0.1,0-0.2,0-0.4
		c0-5.6,0-11.2,0-16.8c0-0.3,0.1-0.4,0.3-0.6c1-0.8,2.1-1.1,3.3-1.2c1.9-0.1,3.2,1.1,3.5,2.9c0.1,0.6,0.1,1.2,0.1,1.8
		c0,4.7,0,9.3,0,14c0,0.6,0,0.6,0.6,0.6c1.3,0,2.7,0,4,0c0.5,0,0.6,0,0.6-0.6c0-5,0-10,0-15c0-1.2-0.1-2.3-0.4-3.5
		c-0.6-2.2-1.9-3.9-4.1-4.6c-2.4-0.7-4.7-0.4-6.9,0.8c-0.4,0.2-0.7,0.4-1.1,0.7C419.4,481.2,419.4,478.2,419.4,475.2z M410,475.3
		c0-0.3-0.1-0.5-0.4-0.6c-0.5-0.1-0.9-0.3-1.4-0.4c-1.7-0.3-3.4-0.3-5-0.2c-1.9,0.2-3.8,0.7-5.5,1.6c-3.3,1.8-5.4,4.7-6.6,8.2
		c-1.2,3.6-1.2,7.3-0.6,11c0.2,1.5,0.7,3,1.4,4.4c0.7,1.5,1.6,2.8,2.8,3.9c0.7,0.7,1.5,1.3,2.4,1.8c2.4,1.3,4.9,1.8,7.6,1.7
		c0.8,0,1.6-0.1,2.4-0.2c0.7-0.1,1.5-0.3,2.2-0.5c0.3-0.1,0.4-0.3,0.4-0.6c0-1.3,0-2.6,0-3.8c0-0.3-0.1-0.4-0.4-0.3
		c-2.1,0.7-4.3,0.8-6.4,0.4c-1.5-0.3-2.8-0.9-3.9-1.9c-1.4-1.2-2.3-2.8-2.8-4.5c-0.6-2-0.7-4.1-0.6-6.2c0.1-1.8,0.4-3.5,1.1-5.1
		c1.4-3.2,3.8-5,7.3-5.3c0.6-0.1,1.2,0,1.9,0c1.2,0,2.4,0.2,3.6,0.7c0.4,0.2,0.6,0.1,0.6-0.4c0-0.7,0-1.3,0-2
		C410,476.7,410,476,410,475.3z"/>
	<g id="left_arm_3_">
		<path id="left_hand_xA0_Image_2_" class="st5" d="M679.1,585.6c-5.8-9.2-7-19.1-2.2-26.3c7.6-11.3,27.5-11.3,44.3,0
			c16.9,11.3,24.4,29.7,16.7,41.1c-5.2,7.7-15.9,10.1-27.6,7.4c0.9,3.1,0.7,5.7-0.9,7.4c-3.7,4.1-13.8,1-22.6-6.9
			c-8.8-7.9-12.8-17.7-9.1-21.8C678.3,586.1,678.7,585.8,679.1,585.6z"/>
		<polygon id="left_arm_4_" class="st3" points="711.8,548.1 674.8,598.1 439.8,433.4 441.2,368.1 		"/>
	</g>
	<g id="right_arm_3_">
		<path id="right_hand_xA0_Image_2_" class="st5" d="M138.9,585.6c5.8-9.2,7-19.1,2.2-26.3c-7.6-11.3-27.5-11.3-44.3,0
			C79.8,570.6,72.3,589,80,600.4c5.2,7.7,15.9,10.1,27.6,7.4c-0.9,3.1-0.7,5.7,0.9,7.4c3.7,4.1,13.8,1,22.6-6.9
			c8.8-7.9,12.8-17.7,9.1-21.8C139.7,586.1,139.3,585.8,138.9,585.6z"/>
		<polygon id="right_arm_4_" class="st3" points="107.8,548.1 144.8,598.1 379.8,433.4 378.5,368.1 		"/>
	</g>
</g>
<g id="_x2B_necklace__x7B_attachTo__x3D___x22_neck_x22__x7D__2_">
	<g id="Dangle_beaker_2_">
		<path class="st6" d="M427,361.5h6.9c0,0,10.2,4.6,10.2,32.1c0,27.4-17.6,122.8-35,122.8s-33-97.3-33-121.7
			c0-24.4,9.9-33.2,9.9-33.2h10"/>
		<path class="st7" d="M402.2,530.9c1.2,1.6,5,1.6,7.3,1.6c2.3,0,6.2,0,7.4-1.6c1.4-1.9-5.1-9.6-5.4-14.7c-0.3-6.3,0-5.3,0.3-5.4
			c0.2-0.1,0.6-1.2-1.8-1.2c-2.4-0.1-3,0.7-2.5,1.1c0.2,0.2,0.2-0.3,0.3,0.5c0.1,1,0,3.3,0,5.3C407.9,520.8,400.8,529.1,402.2,530.9
			z"/>
		<path class="st8" d="M402.2,530.9c1.2,1.6,5,1.6,7.3,1.6c2.3,0,6.2,0,7.4-1.6c0.8-1.1-1-4.1-2.8-7.5c-3.3,0.6-4.8-0.8-9-0.1
			C403.4,526.6,401.4,529.8,402.2,530.9z"/>
	</g>
</g>
<g id="neck_2_">
	<path class="st9" d="M409.9,401.1L409.9,401.1c-14.8,0-26.9-12.1-26.9-26.9v-28.3c0-14.8,12.1-26.9,26.9-26.9h0
		c14.8,0,26.9,12.1,26.9,26.9v28.3C436.8,389,424.7,401.1,409.9,401.1z"/>
</g>
<g id="Head">
	<g id="_x2B_face_background">
		<ellipse id="left_ear" class="st10" cx="521.3" cy="209.6" rx="16.5" ry="26.5"/>
		<ellipse id="right_ear" class="st10" cx="298.3" cy="209.6" rx="16.5" ry="26.5"/>
		<path id="face" class="st11" d="M490.6,69.3c-16.7-15.7-52.8-20.3-79.7-20.2c-28,0-73.1,7.5-87.6,23.5
			c-14.5,16-23.4,84-23.4,132.5c0,86.2,49.7,156,111,156c61.3,0,110-69.8,110-156C520.8,149.7,504.6,82.5,490.6,69.3z"/>
		<path id="hair" class="st12" d="M518.8,131.1c0.7-20.3-4-60.7-29-88c-25-27.3-63-27-87-13c-7.3-8.7-16.7-16-31-18
			c16.3,12,15.7,19.3,15,24c-16-18.7-32.3-20.7-41-21c17,8,19,17.7,20,22c-15.3-14.7-27-14-41-11c8.3,2,20,8.7,21,13
			c-17.3-0.7-27.7,10.7-33,19c-5.3,8.3-17,52.7-14,97c3,44.3,3.9,55,4,57c1.8,1.6,6.9,6.1,7,0c0.1-6.1,7.5-130.4,25-129
			c5.2,8.7,11,18,11,18l16-18l5,18l10-18l12,17l9-17l14,21l12-21l11,22l11-16l13,17l10-23l10,23l8-13c0,0,22.8,13.3,23,114
			c1.2,0,11,0,11,0S518.2,151.4,518.8,131.1z"/>
	</g>
	<g id="_x2B_Mouth">
		<path id="W-Oo_1_" class="st13" d="M421.6,307.7c0.7-11.2-3.1-17.8-10-17.8c-6.1,0-9.1,2.1-10.7,5.5c-1.5,3.3-2.2,6.7-1.1,13.6
			c0.9,5.1,5.4,7.4,10.3,7.2C416.1,316,421,313.9,421.6,307.7z"/>
		<g id="Th_1_" class="st13">
			<path id="back_of_mouth_7_" class="st14" d="M437.9,300h-55.1c-1,2-1,4,0.4,7h55.5c0.1,0,0.1-0.1,0.2-0.3
				C439.4,304.1,439,302,437.9,300z"/>
			<path id="lower_teeth_5_" class="st15" d="M383.2,307c0.1,0,0.2,0.4,0.3,0.6c2.3,4.4,13.8,6.3,26.2,6.1c14.6-0.2,26.9-1.8,29-6.8
				H383.2z"/>
			<ellipse id="tongue_1_" class="st16" cx="411" cy="300.7" rx="17.5" ry="6.9"/>
			<path id="upper_teeth_6_" class="st15" d="M382.8,300h55.1c-3.1-6-11.7-8.5-24.5-8.5c-15.5,0-23,1.8-27.1,4.8
				C384.7,297.4,383.5,298,382.8,300z"/>
		</g>
		<g id="Oh-Uh" class="st13">
			<path id="back_of_mouth_6_" class="st14" d="M433,309.4c1.4-14.8-6.3-23.6-20.2-23.6c-12.2,0-18.2,2.7-21.4,7.3
				c-3.1,4.4-4.4,8.8-2.2,18c1.8,6.7,10.9,9.8,20.7,9.5C421.9,320.3,431.9,317.5,433,309.4z"/>
			<path id="tongue" class="st16" d="M411,313.9c-8.4,0-15.3,1.4-17.1,3.2c4,2.5,9.8,3.7,16,3.5c7.1-0.2,13.5-1.3,17.8-3.8
				C425.5,315.2,418.9,313.9,411,313.9z"/>
		</g>
		<path id="M_1_" class="st13" d="M439.6,306c-19-2.2-38.2-2.2-57.3,0c-1.1,0.1-2.1-0.6-2.2-1.7l0,0c-0.1-1.1,0.7-2.1,1.8-2.2
			c19.3-2.3,38.9-2.3,58.2,0c1.1,0.1,1.9,1.1,1.8,2.2l0,0C441.7,305.3,440.7,306.1,439.6,306z"/>
		<g id="L_1_" class="st13">
			<path id="back_of_mouth_5_" class="st14" d="M439.8,299h-59.1c-1.6,2-1.8,4.7,0.3,8.7c0.1,0.1,0.2,0.3,0.3,0.3h59.3
				c0.4,0,0.7-0.9,0.9-1.4C442.1,303.6,441.5,301,439.8,299z"/>
			<ellipse id="tongue_3_" class="st16" cx="411" cy="298.4" rx="17.5" ry="5.6"/>
			<path id="lower_teeth_4_" class="st15" d="M381.3,308c3,4,15.2,5.9,28.4,5.7c14.8-0.2,27.4-1.7,31-5.7H381.3z"/>
			<path id="upper_teeth_5_" class="st15" d="M439.8,299c-3.7-5-12.9-7.6-26.2-7.6c-16.9,0-25.2,1.8-29.6,4.7
				c-1.4,0.9-2.5,1.9-3.3,2.9H439.8z"/>
		</g>
		<g id="K" class="st13">
			<path id="back_of_mouth_4_" class="st14" d="M443.3,303.4c0.3-0.9,0.3-1.4,0.2-2.4h-65.7c0.1,1,0.6,2,1.6,3.3
				c0.6,0.7,1.6,1.7,3.1,1.7h56.8C441.4,306,442.8,304.5,443.3,303.4z"/>
			<path id="lower_teeth_3_" class="st15" d="M382.3,306c5.3,2,15.9,2.8,27.2,2.7c12.7-0.1,23.8-0.7,29.6-2.7H382.3z"/>
			<path id="upper_teeth_4_" class="st15" d="M413.7,292.4c-17.8,0-26.6,1.2-31.3,3.4c-3.2,1.5-5,3.2-4.7,5.2h65.7
				C442.4,296,431.5,292.4,413.7,292.4z"/>
		</g>
		<g id="F" class="st13">
			<path id="back_of_mouth_3_" class="st14" d="M380.7,303c0.1,0,0.1,0.6,0.2,0.8c0.3,0.1,17.1,0.2,30.8,0.2
				c14.9,0,28.2-0.2,29.1-0.2c0-0.2,0-0.7,0-0.7H380.7z"/>
			<path id="upper_teeth_3_" class="st15" d="M414.2,293c-16.9,0-24.8,0.9-29.2,3.9c-3.8,2.5-4.7,4.1-4.3,6.1h60.2
				C440.8,298,432.7,293,414.2,293z"/>
		</g>
		<g id="Ee_2_" class="st13">
			<path id="back_of_mouth" class="st14" d="M440.6,299h-60c-1,2-0.5,5,1.4,8.7c0.1,0.1,0.2,0.3,0.3,0.3h56.9c0.4,0,0.7-0.9,0.8-1.5
				C440.8,303.4,441,301,440.6,299z"/>
			<path id="lower_teeth_2_" class="st15" d="M382.3,308c3,4,15.2,5.9,28.4,5.7c14.7-0.2,25.3-1.7,28.5-5.7H382.3z"/>
			<path id="upper_teeth_2_" class="st15" d="M440.6,299c-1.3-7-9.5-7.6-26-7.6c-16.9,0-26.3,1.1-30.7,4.1c-1.6,1.1-2.7,2.6-3.2,3.6
				H440.6z"/>
		</g>
		<g id="D_1_" class="st13">
			<path id="back_of_mouth_1_" class="st14" d="M388.6,305h44.6c0,0,0.1-0.1,0.1-0.1c0.2-1,0.2-1.9,0-2.9h-45.5
				C387.9,303,388.1,304,388.6,305z"/>
			<ellipse id="tongue_2_" class="st16" cx="410.9" cy="301.7" rx="11.1" ry="2.2"/>
			<path id="lower_teeth_1_" class="st15" d="M388.6,305c0.1,0,0.2,0.5,0.3,0.7c1.8,3.4,11,4.9,21,4.7c12-0.2,21.9-1.4,23.3-5.4
				H388.6z"/>
			<path id="upper_teeth_1_" class="st15" d="M412.9,293.2c-12.4,0-18.5,1.4-21.7,3.7c-2.1,1.5-3.4,3.2-3.3,5.2h45.5
				C432.4,296,425,293.2,412.9,293.2z"/>
		</g>
		<g id="Ah_1_" class="st13">
			<path id="back_of_mouth_2_" class="st14" d="M435.6,295h-50.8c-2.1,4-2.6,8.7-0.5,17c0.4,1.2,1,2,1.7,3h49.3c1.3-1,2.2-3,2.5-5.1
				C438.4,303.9,437.7,299,435.6,295z"/>
			<ellipse id="tongue_6_" class="st16" cx="411" cy="315" rx="17.5" ry="4.1"/>
			<path id="lower_teeth" class="st15" d="M386.1,315c4.1,6,13.5,7.8,23.6,7.5c11.4-0.3,21.2-1.5,25.7-7.5H386.1z"/>
			<path id="upper_teeth" class="st15" d="M435.6,295c-3.7-8-11.5-12-22.5-12c-14.9,0-22.2,3.2-26.2,8.5c-0.8,1.1-1.6,2.5-2.2,3.5
				H435.6z"/>
		</g>
		<ellipse id="Surprised_2_" class="st17" cx="410.5" cy="302.6" rx="28.5" ry="13.5"/>
		<path id="Smile" class="st18" d="M374.9,294.8c11.6,9.5,37.1,11.7,65.4,8.3"/>
		<path id="Neutral_1_" class="st19" d="M439.7,305h-57.2c-1.1,0-2-0.9-2-2l0,0c0-1.1,0.9-2,2-2h57.2c1.1,0,2,0.9,2,2l0,0
			C441.7,304.1,440.8,305,439.7,305z"/>
	</g>
	<g id="_x2B_Nose">
		<polygon class="st20" points="409.8,191.1 393.5,254.1 426.1,254.1 		"/>
	</g>
	<g id="_x2B_Left_Eye">
		<ellipse id="Left_Eyeball_2_" class="st21" cx="464.8" cy="177.6" rx="26" ry="17.5"/>
		<path id="_x2B_Left_Pupil" class="st19" d="M464.3,186.1L464.3,186.1c-4.7,0-8.5-3.8-8.5-8.5v0c0-4.7,3.8-8.5,8.5-8.5h0
			c4.7,0,8.5,3.8,8.5,8.5v0C472.8,182.3,469,186.1,464.3,186.1z"/>
		<path id="Left_Blink__x28_b_x21__x29_" class="st22" d="M484.7,176.6h-39.2c-0.8,0-1.5,0.7-1.5,1.5v0c0,0.8,0.7,1.5,1.5,1.5h39.2
			c0.8,0,1.5-0.7,1.5-1.5v0C486.2,177.3,485.5,176.6,484.7,176.6z"/>
	</g>
	<g id="_x2B_Left_Eyebrow">
		<path class="st23" d="M489,152.1c-16.4-5.1-33.9-5.1-50.3,0c-3.2,1-6.7-0.4-7.9-3.5h0c-1.2-3,0.7-6.7,4.4-7.8
			c18.7-5.9,38.7-5.9,57.4,0c3.7,1.2,5.6,4.8,4.4,7.8h0C495.7,151.6,492.1,153.1,489,152.1z"/>
	</g>
	<g id="_x2B_Right_Eye">
		<ellipse id="Right_Eyeball_2_" class="st21" cx="357.8" cy="177.6" rx="26" ry="17.5"/>
		<path id="_x2B_Right_Pupil" class="st19" d="M357.3,186.1L357.3,186.1c-4.7,0-8.5-3.8-8.5-8.5v0c0-4.7,3.8-8.5,8.5-8.5h0
			c4.7,0,8.5,3.8,8.5,8.5v0C365.8,182.3,362,186.1,357.3,186.1z"/>
		<path id="Right_Blink__x28_b_x21__x29_" class="st22" d="M377.7,176.6h-39.2c-0.8,0-1.5,0.7-1.5,1.5v0c0,0.8,0.7,1.5,1.5,1.5h39.2
			c0.8,0,1.5-0.7,1.5-1.5v0C379.2,177.3,378.5,176.6,377.7,176.6z"/>
	</g>
	<g id="_x2B_Right_Eyebrow">
		<path class="st23" d="M382.1,152.1c-16.4-5.1-33.9-5.1-50.3,0c-3.2,1-6.7-0.4-7.9-3.5h0c-1.2-3,0.7-6.7,4.4-7.8
			c18.7-5.9,38.7-5.9,57.4,0c3.7,1.2,5.6,4.8,4.4,7.8h0C388.8,151.6,385.2,153.1,382.1,152.1z"/>
	</g>
</g>
</svg>
